<?xml version="1.0" encoding="iso-8859-1"?>
<!-- Uploaded to: SVG Repo, www.svgrepo.com, Generator: SVG Repo Mixer Tools -->
<svg height="800px" width="800px" version="1.1" id="Layer_1" xmlns="http://www.w3.org/2000/svg" xmlns:xlink="http://www.w3.org/1999/xlink" 
	 viewBox="0 0 512 512" xml:space="preserve">
<path style="fill:#EC5565;" d="M0,256.006C0,397.402,114.606,512.004,255.996,512C397.394,512.004,512,397.402,512,256.006
	C512.009,114.61,397.394,0,255.996,0C114.606,0,0,114.614,0,256.006z"/>
<path style="fill:#D94453;" d="M512,256.005c0.001-15.031-1.367-29.735-3.852-44.055c-0.096-0.09-119.559-119.606-120.09-120.09
	c-4.222-4.633-10.242-7.595-16.989-7.595H140.93c-12.717,0.001-23.063,10.345-23.063,23.06v297.347
	c0,6.746,2.961,12.765,7.594,16.985c0.483,0.53,85.914,85.961,86.445,86.445c0.015,0.016,0.031,0.03,0.046,0.046
	c14.317,2.483,29.017,3.852,44.045,3.852C397.394,512.004,512,397.401,512,256.005z"/>
<path style="fill:#F4F6F9;" d="M371.07,84.267H140.93c-12.717,0-23.063,10.343-23.063,23.06v297.347
	c0,12.717,10.347,23.06,23.063,23.06h230.14c12.717,0,23.063-10.343,23.063-23.06V107.327
	C394.133,94.61,383.787,84.267,371.07,84.267z M379.2,107.327v200.94h-29.867v-82.133c0-4.124-3.34-7.467-7.467-7.467h-37.333
	c-4.127,0-7.467,3.343-7.467,7.467v82.133h-37.333V99.2H371.07C375.554,99.2,379.2,102.846,379.2,107.327z M312,300.8v-67.2h22.4
	v67.2H312z M210.096,308.267l-15.499-46.79c-1.298-3.916-5.527-6.037-9.436-4.739c-3.916,1.298-6.037,5.52-4.739,9.436
	l13.943,42.094h-7.588l-15.491-46.79c-1.291-3.908-5.498-6.055-9.436-4.739c-3.916,1.294-6.037,5.52-4.739,9.436l13.936,42.094
	h-7.582l-15.499-46.79c-1.298-3.916-5.513-6.037-9.436-4.739c-3.916,1.298-6.037,5.52-4.739,9.436l13.943,42.094H132.8V203.733h112
	v104.533H210.096z M140.93,99.2H244.8v89.6h-58.73l-14.785-44.658c-1.291-3.908-5.498-6.048-9.436-4.739
	c-3.916,1.294-6.037,5.52-4.739,9.436l13.231,39.962h-7.583l-14.793-44.658c-1.298-3.916-5.513-6.045-9.436-4.739
	c-3.916,1.298-6.037,5.52-4.739,9.436l13.237,39.962H132.8v-81.473C132.8,102.846,136.446,99.2,140.93,99.2z M132.8,404.673V323.2
	h112v89.6H140.93C136.446,412.8,132.8,409.154,132.8,404.673z M371.07,412.8H259.733v-89.6H379.2v81.473
	C379.2,409.154,375.554,412.8,371.07,412.8z"/>
</svg>